<?xml version="1.0" standalone="yes"?>
<svg xmlns="http://www.w3.org/2000/svg" width="220" height="310">
<path style="fill:#010101; stroke:none;" d="M0 0L0 310L220 310L220 0L0 0z"/>
<path style="fill:#258619; stroke:none;" d="M90 11L90 12L96 12L90 11z"/>
<path style="fill:#6e989f; stroke:none;" d="M96 11L96 12L104 12L96 11z"/>
<path style="fill:#af9e56; stroke:none;" d="M73 226L142 226C144.094 199.501 159.222 185.448 172.575 164C191.314 133.9 206.662 89.3845 190.511 55C180.18 33.0068 158.811 20.6974 136 15.1296C84.9822 2.67697 23.1626 25.0197 17.1705 84C14.4761 110.521 17.4287 137.376 32.6713 160C47.9597 182.692 71.6869 195.883 73 226z"/>
<path style="fill:#6e989f; stroke:none;" d="M109 11L109 12L113 12L109 11z"/>
<path style="fill:#258619; stroke:none;" d="M113 11L113 12L118 12L113 11M83 12L83 13L86 13L83 12z"/>
<path style="fill:#6e989f; stroke:none;" d="M86 12L87 13L86 12M121.667 12.3333L122.333 12.6667L121.667 12.3333z"/>
<path style="fill:#258619; stroke:none;" d="M123 12L123 13L126 13L123 12M78 13L78 14L81 14L78 13z"/>
<path style="fill:#6e989f; stroke:none;" d="M81 13L82 14L81 13M128 13L129 14L128 13z"/>
<path style="fill:#258619; stroke:none;" d="M129 13L129 14L133 14L129 13M75.6667 14.3333L76.3333 14.6667L75.6667 14.3333z"/>
<path style="fill:#6e989f; stroke:none;" d="M77 14L78 15L77 14M133 14L134 15L133 14z"/>
<path style="fill:#258619; stroke:none;" d="M134 14L134 15L137 15L134 14M72.6667 15.3333L73.3333 15.6667L72.6667 15.3333z"/>
<path style="fill:#6e989f; stroke:none;" d="M74 15L75 16L74 15M137 15L138 16L137 15z"/>
<path style="fill:#258619; stroke:none;" d="M138.667 15.3333L139.333 15.6667L138.667 15.3333M70.6667 16.3333L71.3333 16.6667L70.6667 16.3333M141 16L141 17L144 17L141 16M67.6667 17.3333L68.3333 17.6667L67.6667 17.3333z"/>
<path style="fill:#6e989f; stroke:none;" d="M144 17L145 18L144 17z"/>
<path style="fill:#258619; stroke:none;" d="M145.667 17.3333L146.333 17.6667L145.667 17.3333M65.6667 18.3333L66.3333 18.6667L65.6667 18.3333M147.667 18.3333L148.333 18.6667L147.667 18.3333M63 19L64 20L63 19z"/>
<path style="fill:#6e989f; stroke:none;" d="M64 19L65 20L64 19M149 19L150 20L149 19z"/>
<path style="fill:#258619; stroke:none;" d="M150.667 19.3333L151.333 19.6667L150.667 19.3333M61.6667 20.3333L62.3333 20.6667L61.6667 20.3333M152.667 20.3333L153.333 20.6667L152.667 20.3333M59.6667 21.3333L60.3333 21.6667L59.6667 21.3333M154.667 21.3333L155.333 21.6667L154.667 21.3333M57.6667 22.3333L58.3333 22.6667L57.6667 22.3333M157.667 22.3333L158.333 22.6667L157.667 22.3333M56 23L57 24L56 23M159.667 23.3333L160.333 23.6667L159.667 23.3333M54 24L55 25L54 24z"/>
<path style="fill:#6e989f; stroke:none;" d="M55 24L56 25L55 24z"/>
<path style="fill:#258619; stroke:none;" d="M161 24L162 25L161 24M53 25L54 26L53 25M163 25L164 26L163 25M51 26L52 27L51 26z"/>
<path style="fill:#6e989f; stroke:none;" d="M52 26L53 27L52 26z"/>
<path style="fill:#258619; stroke:none;" d="M164.667 26.3333L165.333 26.6667L164.667 26.3333M50 27L51 28L50 27M166 27L167 28L166 27M48 28L49 29L48 28z"/>
<path style="fill:#6e989f; stroke:none;" d="M49 28L50 29L49 28z"/>
<path style="fill:#258619; stroke:none;" d="M167 28L168 29L167 28M47 29L48 30L47 29M169 29L170 30L169 29M46 30L47 31L46 30M170 30L171 31L170 30M45 31L46 32L45 31M171 31L172 32L171 31M43 32L42 34L43 32z"/>
<path style="fill:#6e989f; stroke:none;" d="M44 32L45 33L44 32z"/>
<path style="fill:#258619; stroke:none;" d="M173 32L174 33L173 32z"/>
<path style="fill:#6e989f; stroke:none;" d="M43 33L44 34L43 33z"/>
<path style="fill:#258619; stroke:none;" d="M174 33L175 34L174 33M41 34L42 35L41 34M175 34L176 35L175 34M40 35L41 36L40 35M176 35L177 36L176 35M39 36L40 37L39 36M177 36L178 37L177 36M38 37L39 38L38 37M178 37L179 38L178 37M37 38L38 39L37 38M179 38L180 39L179 38M36 39L37 40L36 39M180 39L181 40L180 39M35 40L36 41L35 40M181 40L182 41L181 40z"/>
<path style="fill:#6e989f; stroke:none;" d="M35 41L36 42L35 41z"/>
<path style="fill:#258619; stroke:none;" d="M182 41L183 42L182 41M34 42L35 43L34 42z"/>
<path style="fill:#6e989f; stroke:none;" d="M182 42L183 43L182 42z"/>
<path style="fill:#258619; stroke:none;" d="M33 43L34 44L33 43M183 43L184 44L183 43M32 44L33 45L32 44M184 44L185 45L184 44z"/>
<path style="fill:#6e989f; stroke:none;" d="M32 45L33 46L32 45z"/>
<path style="fill:#258619; stroke:none;" d="M185.333 45.6667L185.667 46.3333L185.333 45.6667M31 46L32 47L31 46M30 47L31 48L30 47M186 47L187 48L186 47M29.3333 48.6667L29.6667 49.3333L29.3333 48.6667M187.333 48.6667L187.667 49.3333L187.333 48.6667M28 50L29 51L28 50M188 50L189 51L188 50z"/>
<path style="fill:#6e989f; stroke:none;" d="M188 51L189 52L188 51z"/>
<path style="fill:#258619; stroke:none;" d="M27 52L28 53L27 52M189 52L190 53L189 52M26.3333 53.6667L26.6667 54.3333L26.3333 53.6667M190 54L191 55L190 54M25.3333 55.6667L25.6667 56.3333L25.3333 55.6667M191 56L192 57L191 56M24.3333 57.6667L24.6667 58.3333L24.3333 57.6667z"/>
<path style="fill:#6e989f; stroke:none;" d="M191 57L192 58L191 57z"/>
<path style="fill:#258619; stroke:none;" d="M192.333 58.6667L192.667 59.3333L192.333 58.6667M23.3333 59.6667L23.6667 60.3333L23.3333 59.6667M22.3333 61.6667L22.6667 62.3333L22.3333 61.6667M193.333 61.6667L193.667 62.3333L193.333 61.6667z"/>
<path style="fill:#6e989f; stroke:none;" d="M22 63L23 64L22 63z"/>
<path style="fill:#258619; stroke:none;" d="M21.3333 64.6667L21.6667 65.3333L21.3333 64.6667M194.333 64.6667L194.667 65.3333L194.333 64.6667z"/>
<path style="fill:#6e989f; stroke:none;" d="M194 66L195 67L194 66z"/>
<path style="fill:#258619; stroke:none;" d="M20.3333 67.6667L20.6667 68.3333L20.3333 67.6667M195 68L195 71L196 71L195 68M19.3333 70.6667L19.6667 71.3333L19.3333 70.6667z"/>
<path style="fill:#6e989f; stroke:none;" d="M19 72L20 73L19 72z"/>
<path style="fill:#258619; stroke:none;" d="M18 73L18 76L19 76L18 73M196 73L196 78L197 78L196 73z"/>
<path style="fill:#6e989f; stroke:none;" d="M18 76L19 77L18 76z"/>
<path style="fill:#258619; stroke:none;" d="M17 77L17 81L18 81L17 77z"/>
<path style="fill:#6e989f; stroke:none;" d="M196 78L197 79L196 78M17 81L18 82L17 81z"/>
<path style="fill:#258619; stroke:none;" d="M197 81L198 82L197 81M16 83L16 90L17 90L16 83z"/>
<path style="fill:#6e989f; stroke:none;" d="M16 90L16 93L17 93L16 90M196 93L197 94L196 93z"/>
<path style="fill:#258619; stroke:none;" d="M196 94L196 100L197 100L196 94M15 96L15 105L16 105L15 96z"/>
<path style="fill:#6e989f; stroke:none;" d="M195 102L196 103L195 102z"/>
<path style="fill:#258619; stroke:none;" d="M195 103L195 107L196 107L195 103M194 109L194 112L195 112L194 109z"/>
<path style="fill:#6e989f; stroke:none;" d="M16.3333 110.667L16.6667 111.333L16.3333 110.667z"/>
<path style="fill:#258619; stroke:none;" d="M16 112L16 118L17 118L16 112z"/>
<path style="fill:#6e989f; stroke:none;" d="M193 113L194 114L193 113z"/>
<path style="fill:#258619; stroke:none;" d="M193.333 114.667L193.667 115.333L193.333 114.667M192.333 118.667L192.667 119.333L192.333 118.667z"/>
<path style="fill:#6e989f; stroke:none;" d="M17 120L18 121L17 120z"/>
<path style="fill:#258619; stroke:none;" d="M17 121L17 125L18 125L17 121z"/>
<path style="fill:#6e989f; stroke:none;" d="M191 121L192 122L191 121z"/>
<path style="fill:#258619; stroke:none;" d="M191.333 122.667L191.667 123.333L191.333 122.667M190.333 125.667L190.667 126.333L190.333 125.667M18 126L18 130L19 130L18 126M189.333 128.667L189.667 129.333L189.333 128.667z"/>
<path style="fill:#6e989f; stroke:none;" d="M19 130L20 131L19 130z"/>
<path style="fill:#258619; stroke:none;" d="M19.3333 131.667L19.6667 132.333L19.3333 131.667M188.333 131.667L188.667 132.333L188.333 131.667M20.3333 134.667L20.6667 135.333L20.3333 134.667M187.333 134.667L187.667 135.333L187.333 134.667z"/>
<path style="fill:#6e989f; stroke:none;" d="M186 136L187 137L186 136M21 137L22 138L21 137z"/>
<path style="fill:#258619; stroke:none;" d="M186 137L187 138L186 137M21 138L22 139L21 138M185.333 139.667L185.667 140.333L185.333 139.667z"/>
<path style="fill:#6e989f; stroke:none;" d="M22 140L23 141L22 140z"/>
<path style="fill:#258619; stroke:none;" d="M22 141L23 142L22 141M184.333 141.667L184.667 142.333L184.333 141.667z"/>
<path style="fill:#6e989f; stroke:none;" d="M23 142L24 143L23 142z"/>
<path style="fill:#258619; stroke:none;" d="M23 143L24 144L23 143M183.333 143.667L183.667 144.333L183.333 143.667M24.3333 145.667L24.6667 146.333L24.3333 145.667z"/>
<path style="fill:#6e989f; stroke:none;" d="M182 145L183 146L182 145z"/>
<path style="fill:#258619; stroke:none;" d="M182 146L183 147L182 146M25.3333 147.667L25.6667 148.333L25.3333 147.667M181 148L182 149L181 148M26.3333 149.667L26.6667 150.333L26.3333 149.667M180 150L181 151L180 150M27.3333 151.667L27.6667 152.333L27.3333 151.667M179 152L180 153L179 152M28 153L29 154L28 153z"/>
<path style="fill:#6e989f; stroke:none;" d="M178 153L179 154L178 153z"/>
<path style="fill:#258619; stroke:none;" d="M178 154L179 155L178 154M29 155L30 156L29 155z"/>
<path style="fill:#6e989f; stroke:none;" d="M177 155L178 156L177 155M30 156L31 157L30 156z"/>
<path style="fill:#258619; stroke:none;" d="M177 156L178 157L177 156M30 157L31 158L30 157M176.333 157.667L176.667 158.333L176.333 157.667M31 158L32 159L31 158z"/>
<path style="fill:#6e989f; stroke:none;" d="M32 159L33 160L32 159z"/>
<path style="fill:#258619; stroke:none;" d="M175 159L176 160L175 159M32 160L33 161L32 160z"/>
<path style="fill:#6e989f; stroke:none;" d="M174 160L175 161L174 160z"/>
<path style="fill:#258619; stroke:none;" d="M33 161L34 162L33 161M174 161L175 162L174 161z"/>
<path style="fill:#6e989f; stroke:none;" d="M34 162L35 163L34 162z"/>
<path style="fill:#258619; stroke:none;" d="M173 162L174 163L173 162M34 163L35 164L34 163M35 164L36 165L35 164M172 164L173 165L172 164M36 165L37 166L36 165M171.333 165.667L171.667 166.333L171.333 165.667M37 166L39 169L37 166z"/>
<path style="fill:#6e989f; stroke:none;" d="M38 167L39 168L38 167z"/>
<path style="fill:#258619; stroke:none;" d="M170 167L171 168L170 167M169.333 168.667L169.667 169.333L169.333 168.667M39 169L40 170L39 169M40 170L41 171L40 170M168 170L169 171L168 170M41 171L42 172L41 171M167.333 171.667L167.667 172.333L167.333 171.667M42 172L43 173L42 172M43 173L44 174L43 173M166 173L167 174L166 173M44 174L45 175L44 174M165 174L166 175L165 174M45 175L46 176L45 175z"/>
<path style="fill:#6e989f; stroke:none;" d="M164 175L165 176L164 175z"/>
<path style="fill:#258619; stroke:none;" d="M46 176L47 177L46 176M164 176L165 177L164 176M47 177L48 178L47 177M163 177L164 178L163 177M48 178L49 179L48 178M162 178L163 179L162 178M49 179L50 180L49 179M161.333 179.667L161.667 180.333L161.333 179.667M50 180L51 181L50 180M51 181L52 182L51 181M160 181L161 182L160 181M52 182L53 183L52 182M159 182L160 183L159 182M53 183L54 184L53 183M158 183L159 184L158 183M54 184L55 185L54 184M157.333 184.667L157.667 185.333L157.333 184.667M55 185L56 186L55 185M56 186L57 187L56 186M156 186L157 187L156 186M57 187L58 188L57 187M155 187L156 188L155 187z"/>
<path style="fill:#6e989f; stroke:none;" d="M58 188L60 190L58 188z"/>
<path style="fill:#258619; stroke:none;" d="M154 188L155 189L154 188M58 189L59 190L58 189M153 189L154 190L153 189M59 190L60 191L59 190M60 191L61 192L60 191M152 191L153 192L152 191M61 192L62 193L61 192M151 192L152 193L151 192M62.3333 193.667L62.6667 194.333L62.3333 193.667z"/>
<path style="fill:#6e989f; stroke:none;" d="M150 193L151 194L150 193z"/>
<path style="fill:#258619; stroke:none;" d="M150 194L151 195L150 194M63 195L64 196L63 195M149.333 195.667L149.667 196.333L149.333 195.667z"/>
<path style="fill:#6e989f; stroke:none;" d="M64 196L65 197L64 196z"/>
<path style="fill:#258619; stroke:none;" d="M64 197L65 198L64 197z"/>
<path style="fill:#6e989f; stroke:none;" d="M148 197L149 198L148 197z"/>
<path style="fill:#258619; stroke:none;" d="M65.3333 198.667L65.6667 199.333L65.3333 198.667z"/>
<path style="fill:#6e989f; stroke:none;" d="M66 200L67 201L66 200z"/>
<path style="fill:#258619; stroke:none;" d="M147.333 200.667L147.667 201.333L147.333 200.667M66 201L67 202L66 201z"/>
<path style="fill:#6e989f; stroke:none;" d="M146 202L147 203L146 202z"/>
<path style="fill:#258619; stroke:none;" d="M67.3333 203.667L67.6667 204.333L67.3333 203.667M146.333 203.667L146.667 204.333L146.333 203.667z"/>
<path style="fill:#6e989f; stroke:none;" d="M68 205L69 206L68 205z"/>
<path style="fill:#258619; stroke:none;" d="M68.3333 206.667L68.6667 207.333L68.3333 206.667M145 206L145 209L146 209L145 206z"/>
<path style="fill:#6e989f; stroke:none;" d="M69 208L70 209L69 208z"/>
<path style="fill:#258619; stroke:none;" d="M69 209L69 212L70 212L69 209M144.333 210.667L144.667 211.333L144.333 210.667z"/>
<path style="fill:#6e989f; stroke:none;" d="M70 212L71 213L70 212z"/>
<path style="fill:#258619; stroke:none;" d="M70.3333 213.667L70.6667 214.333L70.3333 213.667z"/>
<path style="fill:#6e989f; stroke:none;" d="M143 215L144 216L143 215M71 216L72 217L71 216z"/>
<path style="fill:#258619; stroke:none;" d="M143 216C142.72 222.527 142.191 225.421 146 231L147 231L143 216M71 217L71 220L72 220L71 217z"/>
<path style="fill:#6e989f; stroke:none;" d="M72 220L73 221L72 220z"/>
<path style="fill:#258619; stroke:none;" d="M72 221L72 225L73 225L72 221z"/>
<path style="fill:#6e989f; stroke:none;" d="M142 221L143 222L142 221z"/>
<path style="fill:#258619; stroke:none;" d="M72 226L73 227L72 226z"/>
<path style="fill:#6e989f; stroke:none;" d="M73 226L74 227L73 226z"/>
<path style="fill:#95b3d7; stroke:none;" d="M74 226.533C70.8598 227.298 66.8688 229.268 66.466 232.907C66.076 236.432 71.1485 238.426 71.8912 242.019C73.812 251.31 71.5483 269.007 77.8573 276.49C80.6786 279.837 86.9622 280.288 91 280.869C102.685 282.55 117.507 283.927 128.956 280.28C139.786 276.83 136.267 250.033 139.89 241.015C141.514 236.971 148.941 232.269 143.681 227.894C139.506 224.42 131.056 226 126 226C109.87 226 89.6712 222.716 74 226.533z"/>
<path style="fill:#6e989f; stroke:none;" d="M70 227L71 228L70 227M143 227L144 228L143 227z"/>
<path style="fill:#258619; stroke:none;" d="M68 228L69 229L68 228M67 229L68 230L67 229M66 230L67 231L66 230z"/>
<path style="fill:#6e989f; stroke:none;" d="M146 231L147 232L146 231z"/>
<path style="fill:#258619; stroke:none;" d="M65 232L65 236L66 236L65 232M146 232L147 233L146 232M145 234L146 235L145 234M144 235L145 236L144 235M67 236L68 237L67 236z"/>
<path style="fill:#6e989f; stroke:none;" d="M142 236L143 237L142 236z"/>
<path style="fill:#258619; stroke:none;" d="M143 236L144 237L143 236M70 237L71 238L70 237M141 237L142 238L141 237z"/>
<path style="fill:#6e989f; stroke:none;" d="M71.3333 238.667L71.6667 239.333L71.3333 238.667z"/>
<path style="fill:#258619; stroke:none;" d="M140 238L141 239L140 238M71 240L71 244L72 244L71 240z"/>
<path style="fill:#6e989f; stroke:none;" d="M139.333 241.667L139.667 242.333L139.333 241.667z"/>
<path style="fill:#258619; stroke:none;" d="M139 243L139 246L140 246L139 243z"/>
<path style="fill:#6e989f; stroke:none;" d="M72 246L72 249L73 249L72 246M138 247L138 250L139 250L138 247z"/>
<path style="fill:#258619; stroke:none;" d="M72 249L72 253L73 253L72 249M138 250L138 253L139 253L138 250M72 254L73 255L72 254z"/>
<path style="fill:#6e989f; stroke:none;" d="M73 254L73 257L74 257L73 254M137 254L137 257L138 257L137 254z"/>
<path style="fill:#258619; stroke:none;" d="M138 256L139 257L138 256M73 257L73 261L74 261L73 257M137.333 257.667L137.667 258.333L137.333 257.667z"/>
<path style="fill:#6e989f; stroke:none;" d="M136 260L136 263L137 263L136 260M74 262L74 265L75 265L74 262z"/>
<path style="fill:#258619; stroke:none;" d="M136 263L136 266L137 266L136 263M74 265L74 268L75 268L74 265z"/>
<path style="fill:#6e989f; stroke:none;" d="M135 267L135 270L136 270L135 267M75.3333 269.667L75.6667 270.333L75.3333 269.667z"/>
<path style="fill:#258619; stroke:none;" d="M135.333 270.667L135.667 271.333L135.333 270.667M75.3333 271.667L75.6667 272.333L75.3333 271.667z"/>
<path style="fill:#6e989f; stroke:none;" d="M134.333 273.667L134.667 274.333L134.333 273.667M76.3333 274.667L76.6667 275.333L76.3333 274.667z"/>
<path style="fill:#258619; stroke:none;" d="M134.333 275.667L134.667 276.333L134.333 275.667M76 276L77 277L76 276M77 277L78 278L77 277z"/>
<path style="fill:#6e989f; stroke:none;" d="M133 277L134 278L133 277z"/>
<path style="fill:#258619; stroke:none;" d="M78.6667 278.333L79.3333 278.667L78.6667 278.333z"/>
<path style="fill:#6e989f; stroke:none;" d="M80 278L81 279L80 278z"/>
<path style="fill:#258619; stroke:none;" d="M133 278L134 279L133 278M81 279C92.1482 297.876 113.888 291.823 128 282L128 281C123.014 282.694 119.849 286.955 115 288.852C102.275 293.829 90.8479 285.727 81 279z"/>
<path style="fill:#6e989f; stroke:none;" d="M82.6667 279.333L83.3333 279.667L82.6667 279.333z"/>
<path style="fill:#258619; stroke:none;" d="M132 279L133 280L132 279z"/>
<path style="fill:#010101; stroke:none;" d="M83 280C92.0947 291.777 114.754 294.81 124 282C109.927 283.778 96.8702 282.69 83 280z"/>
<path style="fill:#258619; stroke:none;" d="M85 280L86 281L85 280z"/>
<path style="fill:#6e989f; stroke:none;" d="M86 280L86 281L89 281L86 280M128 280L128 281L131 281L128 280z"/>
<path style="fill:#258619; stroke:none;" d="M131 280L132 281L131 280M90.6667 281.333L91.3333 281.667L90.6667 281.333z"/>
<path style="fill:#6e989f; stroke:none;" d="M92 281L92 282L96 282L92 281M122 281L122 282L126 282L122 281z"/>
<path style="fill:#258619; stroke:none;" d="M96 282L96 283L102 283L96 282z"/>
<path style="fill:#6e989f; stroke:none;" d="M102 282L102 283L119 283L102 282z"/>
<path style="fill:#258619; stroke:none;" d="M119.667 282.333L120.333 282.667L119.667 282.333z"/>
</svg>
