<?xml version="1.0" standalone="yes"?>
<svg xmlns="http://www.w3.org/2000/svg" width="364" height="408">
<path style="fill:#010101; stroke:none;" d="M0 0L0 408L364 408L364 0L0 0z"/>
<path style="fill:#cfe0e0; stroke:none;" d="M199.667 12.3333L200.333 12.6667L199.667 12.3333z"/>
<path style="fill:#1c4b79; stroke:none;" d="M198.68 14.0864C192.09 18.4031 192.13 35.1542 191.804 42C191.703 44.1315 191.493 51.626 195.741 49.5926C198.388 48.3254 197.979 44.3975 197.999 42C198.072 33.4212 201.6 26.2513 202.562 18.0193C202.819 15.8254 201.486 12.2481 198.68 14.0864z"/>
<path style="fill:#cfe0e0; stroke:none;" d="M202 13L203 14L202 13z"/>
<path style="fill:#88a4ba; stroke:none;" d="M197 14L198 15L197 14z"/>
<path style="fill:#cfe0e0; stroke:none;" d="M203 14L204 15L203 14z"/>
<path style="fill:#88a4ba; stroke:none;" d="M203.333 15.6667L203.667 16.3333L203.333 15.6667z"/>
<path style="fill:#cfe0e0; stroke:none;" d="M196 16L197 17L196 16M135 17L134 19L135 17z"/>
<path style="fill:#1c4b79; stroke:none;" d="M136.584 18.1759C134.001 19.6899 135.195 24.7586 135.76 27C137.839 35.2468 141.494 43.0055 144.305 51C145.019 53.0324 146.21 59.6789 149.736 57.8241C152.905 56.1574 151.153 51.4833 150.304 49C147.431 40.5981 143.403 32.7109 141.445 24.0008C141.017 22.0964 139.909 16.2274 136.584 18.1759z"/>
<path style="fill:#88a4ba; stroke:none;" d="M139 17L140 18L139 17M196 17L197 18L196 17z"/>
<path style="fill:#cfe0e0; stroke:none;" d="M203 17L204 18L203 17z"/>
<path style="fill:#88a4ba; stroke:none;" d="M140 18L141 19L140 18z"/>
<path style="fill:#cfe0e0; stroke:none;" d="M195 18L196 19L195 18z"/>
<path style="fill:#88a4ba; stroke:none;" d="M134 19L134 22L135 22L134 19M195 19L196 20L195 19M202 19L203 20L202 19z"/>
<path style="fill:#cfe0e0; stroke:none;" d="M202 20L203 21L202 20M194 21L195 22L194 21z"/>
<path style="fill:#88a4ba; stroke:none;" d="M201 21L202 22L201 21z"/>
<path style="fill:#cfe0e0; stroke:none;" d="M134.333 22.6667L134.667 23.3333L134.333 22.6667M141 22L142 23L141 22z"/>
<path style="fill:#88a4ba; stroke:none;" d="M194.333 22.6667L194.667 23.3333L194.333 22.6667z"/>
<path style="fill:#cfe0e0; stroke:none;" d="M201 22L202 23L201 22z"/>
<path style="fill:#88a4ba; stroke:none;" d="M141.333 23.6667L141.667 24.3333L141.333 23.6667M200.333 24.6667L200.667 25.3333L200.333 24.6667z"/>
<path style="fill:#cfe0e0; stroke:none;" d="M193 25L194 26L193 25z"/>
<path style="fill:#88a4ba; stroke:none;" d="M135 26L136 27L135 26z"/>
<path style="fill:#cfe0e0; stroke:none;" d="M142 26L143 27L142 26z"/>
<path style="fill:#88a4ba; stroke:none;" d="M193 26L194 27L193 26z"/>
<path style="fill:#cfe0e0; stroke:none;" d="M200 26L201 27L200 26M135 27L136 28L135 27z"/>
<path style="fill:#88a4ba; stroke:none;" d="M142.333 27.6667L142.667 28.3333L142.333 27.6667M199 28L200 29L199 28M136.333 29.6667L136.667 30.3333L136.333 29.6667z"/>
<path style="fill:#cfe0e0; stroke:none;" d="M192 29L193 30L192 29M199.333 29.6667L199.667 30.3333L199.333 29.6667M143 30L144 31L143 30z"/>
<path style="fill:#88a4ba; stroke:none;" d="M192.333 30.6667L192.667 31.3333L192.333 30.6667z"/>
<path style="fill:#cfe0e0; stroke:none;" d="M136 31L137 32L136 31z"/>
<path style="fill:#88a4ba; stroke:none;" d="M143 31L144 32L143 31M259 32L259 33L263 32L259 32z"/>
<path style="fill:#cfe0e0; stroke:none;" d="M263 31L265 33L263 31z"/>
<path style="fill:#88a4ba; stroke:none;" d="M137.333 32.6667L137.667 33.3333L137.333 32.6667z"/>
<path style="fill:#1c4b79; stroke:none;" d="M260.191 33.0864C253.305 36.5657 247.495 52.2816 244.183 58.9992C243.212 60.9694 240.976 67.3654 245.846 66.1682C251.812 64.7015 256.512 48.8829 260.09 44.1288C261.618 42.0981 264.394 40.4263 265.073 37.8758C265.877 34.8551 263.403 31.464 260.191 33.0864z"/>
<path style="fill:#cfe0e0; stroke:none;" d="M144 33L145 34L144 33z"/>
<path style="fill:#88a4ba; stroke:none;" d="M198.333 33.6667L198.667 34.3333L198.333 33.6667z"/>
<path style="fill:#cfe0e0; stroke:none;" d="M258 33L259 34L258 33M137 34L138 35L137 34z"/>
<path style="fill:#88a4ba; stroke:none;" d="M144 34L145 35L144 34z"/>
<path style="fill:#cfe0e0; stroke:none;" d="M265 34L266 35L265 34z"/>
<path style="fill:#88a4ba; stroke:none;" d="M138.333 35.6667L138.667 36.3333L138.333 35.6667z"/>
<path style="fill:#cfe0e0; stroke:none;" d="M145 35L146 36L145 35M191 35L191 38L192 38L191 35M198.333 35.6667L198.667 36.3333L198.333 35.6667z"/>
<path style="fill:#88a4ba; stroke:none;" d="M257 35L258 36L257 35M265 35L266 36L265 35M145 36L146 37L145 36z"/>
<path style="fill:#cfe0e0; stroke:none;" d="M256 36L257 37L256 36M138 37L139 38L138 37z"/>
<path style="fill:#88a4ba; stroke:none;" d="M256 37L257 38L256 37M139 38L140 39L139 38z"/>
<path style="fill:#cfe0e0; stroke:none;" d="M146 38L147 39L146 38z"/>
<path style="fill:#88a4ba; stroke:none;" d="M191 38L191 44L192 44L191 38z"/>
<path style="fill:#cfe0e0; stroke:none;" d="M255 38L256 39L255 38z"/>
<path style="fill:#88a4ba; stroke:none;" d="M265 38L266 39L265 38z"/>
<path style="fill:#cfe0e0; stroke:none;" d="M139 39L140 40L139 39z"/>
<path style="fill:#88a4ba; stroke:none;" d="M146 39L147 40L146 39z"/>
<path style="fill:#cfe0e0; stroke:none;" d="M265 39L266 40L265 39M147 40L148 41L147 40z"/>
<path style="fill:#88a4ba; stroke:none;" d="M254 40L255 41L254 40z"/>
<path style="fill:#cfe0e0; stroke:none;" d="M264 40L265 41L264 40z"/>
<path style="fill:#88a4ba; stroke:none;" d="M140 41L141 42L140 41M147 41L148 42L147 41z"/>
<path style="fill:#cfe0e0; stroke:none;" d="M253 41L254 42L253 41z"/>
<path style="fill:#88a4ba; stroke:none;" d="M261 41L262 42L261 41z"/>
<path style="fill:#cfe0e0; stroke:none;" d="M262 41L263 42L262 41M140 42L141 43L140 42z"/>
<path style="fill:#88a4ba; stroke:none;" d="M253 42L254 43L253 42M141 43L142 44L141 43z"/>
<path style="fill:#cfe0e0; stroke:none;" d="M148 43L149 44L148 43M252 43L253 44L252 43M260 43L261 44L260 43M141 44L142 45L141 44z"/>
<path style="fill:#88a4ba; stroke:none;" d="M148 44L149 45L148 44M259 44L260 45L259 44z"/>
<path style="fill:#cfe0e0; stroke:none;" d="M149 45L150 46L149 45z"/>
<path style="fill:#88a4ba; stroke:none;" d="M191 45L191 49L192 49L191 45M251 45L252 46L251 45z"/>
<path style="fill:#cfe0e0; stroke:none;" d="M259 45L260 46L259 45z"/>
<path style="fill:#88a4ba; stroke:none;" d="M142 46L143 47L142 46M149 46L150 47L149 46z"/>
<path style="fill:#cfe0e0; stroke:none;" d="M250 46L251 47L250 46z"/>
<path style="fill:#88a4ba; stroke:none;" d="M258 46L259 47L258 46z"/>
<path style="fill:#cfe0e0; stroke:none;" d="M142 47L143 48L142 47z"/>
<path style="fill:#88a4ba; stroke:none;" d="M250 47L251 48L250 47M143 48L144 49L143 48z"/>
<path style="fill:#cfe0e0; stroke:none;" d="M150 48L151 49L150 48M249 48L250 49L249 48M257 48L258 49L257 48M143 49L144 50L143 49z"/>
<path style="fill:#88a4ba; stroke:none;" d="M150 49L151 50L150 49z"/>
<path style="fill:#cfe0e0; stroke:none;" d="M191 49L192 50L191 49z"/>
<path style="fill:#88a4ba; stroke:none;" d="M197 49L198 50L197 49M249 49L250 50L249 49M256 49L257 50L256 49z"/>
<path style="fill:#cfe0e0; stroke:none;" d="M192 50L193 51L192 50z"/>
<path style="fill:#88a4ba; stroke:none;" d="M193 50L194 51L193 50M195 50L196 51L195 50z"/>
<path style="fill:#cfe0e0; stroke:none;" d="M196 50L197 51L196 50M248 50L249 51L248 50M256 50L257 51L256 50z"/>
<path style="fill:#88a4ba; stroke:none;" d="M144 51L145 52L144 51z"/>
<path style="fill:#cfe0e0; stroke:none;" d="M151 51L152 52L151 51z"/>
<path style="fill:#88a4ba; stroke:none;" d="M255 51L256 52L255 51z"/>
<path style="fill:#cfe0e0; stroke:none;" d="M144 52L145 53L144 52z"/>
<path style="fill:#88a4ba; stroke:none;" d="M151 52L152 53L151 52z"/>
<path style="fill:#cfe0e0; stroke:none;" d="M247 52L248 53L247 52M255 52L256 53L255 52z"/>
<path style="fill:#88a4ba; stroke:none;" d="M254 53L255 54L254 53z"/>
<path style="fill:#cfe0e0; stroke:none;" d="M78 54L79 55L78 54z"/>
<path style="fill:#88a4ba; stroke:none;" d="M79 54L80 55L79 54z"/>
<path style="fill:#1c4b79; stroke:none;" d="M80.3179 54.8511C76.2238 56.4012 80.5246 61.3106 82.0579 63C87.8064 69.334 94.1184 75.3405 99.4861 81.9992C100.99 83.8649 103.592 88.767 106.681 87.6543C110.488 86.2835 106.766 80.7436 105.471 79C100.347 72.1045 93.8447 66.4837 88.2593 60.0154C86.3603 57.8163 83.9172 53.4883 80.3179 54.8511z"/>
<path style="fill:#88a4ba; stroke:none;" d="M83 54L84 55L83 54z"/>
<path style="fill:#cfe0e0; stroke:none;" d="M84 54L85 55L84 54z"/>
<path style="fill:#88a4ba; stroke:none;" d="M145 54L145 57L146 57L145 54z"/>
<path style="fill:#cfe0e0; stroke:none;" d="M152.333 54.6667L152.667 55.3333L152.333 54.6667z"/>
<path style="fill:#88a4ba; stroke:none;" d="M246 54L247 55L246 54M85 55L86 56L85 55z"/>
<path style="fill:#cfe0e0; stroke:none;" d="M245 55L246 56L245 55M253 55L254 56L253 55M77 56L77 59L78 59L77 56M86 56L87 57L86 56z"/>
<path style="fill:#88a4ba; stroke:none;" d="M245 56L246 57L245 56M86.3333 57.6667L86.6667 58.3333L86.3333 57.6667z"/>
<path style="fill:#cfe0e0; stroke:none;" d="M145 57L146 58L145 57z"/>
<path style="fill:#88a4ba; stroke:none;" d="M151 57L152 58L151 57z"/>
<path style="fill:#cfe0e0; stroke:none;" d="M244 57L245 58L244 57M252 57L253 58L252 57z"/>
<path style="fill:#88a4ba; stroke:none;" d="M146 58L147 59L146 58M150 58L151 59L150 58M244 58L245 59L244 58M251 58L252 59L251 58M78 59L79 60L78 59M87 59L88 60L87 59z"/>
<path style="fill:#cfe0e0; stroke:none;" d="M148 59L149 60L148 59M243 59L244 60L243 59M251 59L252 60L251 59z"/>
<path style="fill:#88a4ba; stroke:none;" d="M79 60L80 61L79 60M88 60L89 61L88 60M243 60L244 61L243 60M250 60L251 61L250 60M80 61L81 62L80 61M89 61L90 62L89 61z"/>
<path style="fill:#cfe0e0; stroke:none;" d="M242 61L243 62L242 61M250 61L251 62L250 61z"/>
<path style="fill:#88a4ba; stroke:none;" d="M81 62L82 63L81 62M90 62L91 63L90 62M249 62L250 63L249 62M82 63L83 64L82 63M91 63L92 64L91 63z"/>
<path style="fill:#cfe0e0; stroke:none;" d="M241.333 63.6667L241.667 64.3333L241.333 63.6667M249 63L250 64L249 63z"/>
<path style="fill:#88a4ba; stroke:none;" d="M83 64L84 65L83 64M92 64L93 65L92 64M248 64L249 65L248 64M84 65L85 66L84 65z"/>
<path style="fill:#cfe0e0; stroke:none;" d="M93 65L94 66L93 65z"/>
<path style="fill:#88a4ba; stroke:none;" d="M85 66L86 67L85 66z"/>
<path style="fill:#cfe0e0; stroke:none;" d="M94 66L95 67L94 66M183 66L183 67L193 67L183 66z"/>
<path style="fill:#f8b348; stroke:none;" d="M145 253L172 252L172 251C167.446 246.54 168.873 238.072 167.739 232C165.73 221.236 161.598 211.012 157.281 201C155.146 196.048 151.06 189.568 151.529 184.001C152.788 169.032 167.699 179.494 171 187C179.651 184.035 180.745 174.706 190 181.792C197.45 187.495 210.357 173.439 213.174 187.004C214.399 192.904 209.258 199.078 206.756 204C201.504 214.332 195.916 225.21 195.09 237C194.933 239.232 196.215 251.507 191.258 249.654C186.36 247.824 188.607 236.643 189.131 233C191.547 216.197 204.481 203.148 207 187L194 190.887L184 187.113L171.004 193.288L159 182C157.416 188.484 161.747 195.122 164.281 201C168.735 211.331 172.693 221.864 174.565 233C175.575 239.009 177.774 246.325 173 251L173 252L220 250C223.054 229.613 242.357 218.161 255.996 204.961C269.848 191.555 278.68 170.504 276.83 151C274.016 121.33 256.802 88.9458 230 74.3125C191.163 53.1082 129.743 74.1483 110.27 113C100.661 132.171 97.2885 157.785 105.453 178C116.399 205.103 137.467 223.895 145 253z"/>
<path style="fill:#cfe0e0; stroke:none;" d="M200 66L200 67L208 67L200 66M242 66L243 67L242 66z"/>
<path style="fill:#88a4ba; stroke:none;" d="M243 66L244 67L243 66z"/>
<path style="fill:#cfe0e0; stroke:none;" d="M247 66L248 67L247 66z"/>
<path style="fill:#88a4ba; stroke:none;" d="M86 67L87 68L86 67z"/>
<path style="fill:#cfe0e0; stroke:none;" d="M95 67L96 68L95 67M178 67L178 68L181 68L178 67M210 67L210 68L213 68L210 67M244.667 67.3333L245.333 67.6667L244.667 67.3333z"/>
<path style="fill:#88a4ba; stroke:none;" d="M87 68L88 69L87 68z"/>
<path style="fill:#cfe0e0; stroke:none;" d="M96 68L97 69L96 68M173 68L173 69L176 69L173 68M215.667 68.3333L216.333 68.6667L215.667 68.3333z"/>
<path style="fill:#88a4ba; stroke:none;" d="M88 69L89 70L88 69z"/>
<path style="fill:#cfe0e0; stroke:none;" d="M97 69L98 70L97 69M169.667 69.3333L170.333 69.6667L169.667 69.3333M218.667 69.3333L219.333 69.6667L218.667 69.3333M303 69L304 70L303 69M88 70L89 71L88 70M98 70L99 71L98 70M165 70L165 71L168 71L165 70M221.667 70.3333L222.333 70.6667L221.667 70.3333M301 70L300 72L301 70z"/>
<path style="fill:#88a4ba; stroke:none;" d="M302 70L303 71L302 70z"/>
<path style="fill:#1c4b79; stroke:none;" d="M302.941 71.0455C296.723 71.7869 279.903 84.9144 275.786 89.7955C273.946 91.9781 275.254 94.6962 278.11 94.6242C285.82 94.4299 298.584 82.3582 303.847 77.196C305.742 75.3373 307.62 70.4877 302.941 71.0455z"/>
<path style="fill:#88a4ba; stroke:none;" d="M305 70L306 71L305 70z"/>
<path style="fill:#cfe0e0; stroke:none;" d="M89 71L90 72L89 71M99 71L100 72L99 71M163 71L164 72L163 71M224 71L225 72L224 71z"/>
<path style="fill:#88a4ba; stroke:none;" d="M306 71L307 72L306 71z"/>
<path style="fill:#cfe0e0; stroke:none;" d="M90 72L91 73L90 72M159 72L159 73L162 73L159 72M226.667 72.3333L227.333 72.6667L226.667 72.3333z"/>
<path style="fill:#88a4ba; stroke:none;" d="M299 72L300 73L299 72z"/>
<path style="fill:#cfe0e0; stroke:none;" d="M91 73L92 74L91 73z"/>
<path style="fill:#88a4ba; stroke:none;" d="M100 73L101 74L100 73z"/>
<path style="fill:#cfe0e0; stroke:none;" d="M157.667 73.3333L158.333 73.6667L157.667 73.3333M228.667 73.3333L229.333 73.6667L228.667 73.3333M297 73L298 74L297 73z"/>
<path style="fill:#88a4ba; stroke:none;" d="M298 73L299 74L298 73z"/>
<path style="fill:#cfe0e0; stroke:none;" d="M92 74L93 75L92 74z"/>
<path style="fill:#88a4ba; stroke:none;" d="M101 74L102 75L101 74z"/>
<path style="fill:#cfe0e0; stroke:none;" d="M154.667 74.3333L155.333 74.6667L154.667 74.3333M230 74L231 75L230 74M296 74L297 75L296 74M93 75L94 76L93 75z"/>
<path style="fill:#88a4ba; stroke:none;" d="M102 75L103 76L102 75z"/>
<path style="fill:#cfe0e0; stroke:none;" d="M152 75L153 76L152 75M232 75L233 76L232 75z"/>
<path style="fill:#88a4ba; stroke:none;" d="M295 75L296 76L295 75z"/>
<path style="fill:#cfe0e0; stroke:none;" d="M306 75L307 76L306 75M94 76L95 77L94 76z"/>
<path style="fill:#88a4ba; stroke:none;" d="M103 76L104 77L103 76z"/>
<path style="fill:#cfe0e0; stroke:none;" d="M149.667 76.3333L150.333 76.6667L149.667 76.3333M233.667 76.3333L234.333 76.6667L233.667 76.3333z"/>
<path style="fill:#88a4ba; stroke:none;" d="M294 76L295 77L294 76M304 76L305 77L304 76z"/>
<path style="fill:#cfe0e0; stroke:none;" d="M305 76L306 77L305 76z"/>
<path style="fill:#88a4ba; stroke:none;" d="M95 77L96 78L95 77z"/>
<path style="fill:#cfe0e0; stroke:none;" d="M104 77L105 78L104 77M147.667 77.3333L148.333 77.6667L147.667 77.3333M235 77L236 78L235 77M292 77L293 78L292 77z"/>
<path style="fill:#88a4ba; stroke:none;" d="M303 77L304 78L303 77M96 78L97 79L96 78z"/>
<path style="fill:#cfe0e0; stroke:none;" d="M105 78L106 79L105 78M145.667 78.3333L146.333 78.6667L145.667 78.3333M236 78L237 79L236 78M291 78L292 79L291 78M302 78L303 79L302 78z"/>
<path style="fill:#88a4ba; stroke:none;" d="M97 79L98 80L97 79z"/>
<path style="fill:#cfe0e0; stroke:none;" d="M143.667 79.3333L144.333 79.6667L143.667 79.3333M238 79L239 80L238 79z"/>
<path style="fill:#88a4ba; stroke:none;" d="M290 79L291 80L290 79z"/>
<path style="fill:#cfe0e0; stroke:none;" d="M301 79L302 80L301 79z"/>
<path style="fill:#88a4ba; stroke:none;" d="M98 80L99 81L98 80M106 80L107 81L106 80z"/>
<path style="fill:#cfe0e0; stroke:none;" d="M141.667 80.3333L142.333 80.6667L141.667 80.3333M239 80L240 81L239 80M288 80L289 81L288 80z"/>
<path style="fill:#88a4ba; stroke:none;" d="M289 80L290 81L289 80M299 80L300 81L299 80z"/>
<path style="fill:#cfe0e0; stroke:none;" d="M300 80L301 81L300 80z"/>
<path style="fill:#88a4ba; stroke:none;" d="M99 81L100 82L99 81z"/>
<path style="fill:#cfe0e0; stroke:none;" d="M107 81L108 82L107 81M140 81L141 82L140 81M240 81L241 82L240 81M287 81L288 82L287 81z"/>
<path style="fill:#88a4ba; stroke:none;" d="M298 81L299 82L298 81z"/>
<path style="fill:#cfe0e0; stroke:none;" d="M99 82L100 83L99 82M138 82L139 83L138 82M241 82L242 83L241 82z"/>
<path style="fill:#88a4ba; stroke:none;" d="M286 82L287 83L286 82z"/>
<path style="fill:#cfe0e0; stroke:none;" d="M297 82L298 83L297 82M100 83L101 84L100 83z"/>
<path style="fill:#88a4ba; stroke:none;" d="M108 83L109 84L108 83z"/>
<path style="fill:#cfe0e0; stroke:none;" d="M137 83L138 84L137 83M242 83L243 84L242 83M284 83L285 84L284 83M296 83L297 84L296 83z"/>
<path style="fill:#88a4ba; stroke:none;" d="M101 84L102 85L101 84z"/>
<path style="fill:#cfe0e0; stroke:none;" d="M135 84L136 85L135 84M243.667 84.3333L244.333 84.6667L243.667 84.3333z"/>
<path style="fill:#88a4ba; stroke:none;" d="M283 84L284 85L283 84M294 84L295 85L294 84z"/>
<path style="fill:#cfe0e0; stroke:none;" d="M109.333 85.6667L109.667 86.3333L109.333 85.6667M134 85L135 86L134 85M245 85L246 86L245 85M281 85L282 86L281 85M293 85L294 86L293 85M102 86L103 87L102 86M132 86L133 87L132 86M246 86L247 87L246 86M280 86L281 87L280 86M292 86L293 87L292 86z"/>
<path style="fill:#88a4ba; stroke:none;" d="M103 87L105 89L103 87M108 87L109 88L108 87z"/>
<path style="fill:#cfe0e0; stroke:none;" d="M131 87L132 88L131 87M247 87L248 88L247 87M278 87L279 88L278 87z"/>
<path style="fill:#88a4ba; stroke:none;" d="M279 87L280 88L279 87M290 87L291 88L290 87z"/>
<path style="fill:#cfe0e0; stroke:none;" d="M103 88L104 89L103 88z"/>
<path style="fill:#88a4ba; stroke:none;" d="M107 88L108 89L107 88z"/>
<path style="fill:#cfe0e0; stroke:none;" d="M130 88L131 89L130 88M248.333 88.6667L248.667 89.3333L248.333 88.6667M276.667 88.3333L277.333 88.6667L276.667 88.3333M289 88L290 89L289 88M129 89L130 90L129 89M274 89L275 90L274 89z"/>
<path style="fill:#88a4ba; stroke:none;" d="M287 89L288 90L287 89z"/>
<path style="fill:#cfe0e0; stroke:none;" d="M127 90L128 91L127 90M249 90L250 91L249 90z"/>
<path style="fill:#88a4ba; stroke:none;" d="M274 90L275 91L274 90z"/>
<path style="fill:#cfe0e0; stroke:none;" d="M286 90L287 91L286 90M126 91L127 92L126 91M250 91L251 92L250 91z"/>
<path style="fill:#88a4ba; stroke:none;" d="M284 91L285 92L284 91z"/>
<path style="fill:#cfe0e0; stroke:none;" d="M285 91L286 92L285 91M125 92L126 93L125 92M251 92L252 93L251 92M283 92L284 93L283 92M124 93L125 94L124 93M252 93L253 94L252 93z"/>
<path style="fill:#88a4ba; stroke:none;" d="M274 93L275 94L274 93z"/>
<path style="fill:#cfe0e0; stroke:none;" d="M282 93L283 94L282 93M123 94L124 95L123 94M253 94L254 95L253 94M274 94L275 95L274 94z"/>
<path style="fill:#88a4ba; stroke:none;" d="M280 94L281 95L280 94z"/>
<path style="fill:#cfe0e0; stroke:none;" d="M122 95L123 96L122 95M276 95L277 96L276 95z"/>
<path style="fill:#88a4ba; stroke:none;" d="M277.667 95.3333L278.333 95.6667L277.667 95.3333z"/>
<path style="fill:#cfe0e0; stroke:none;" d="M279 95L280 96L279 95M121 96L122 97L121 96M254 96L255 97L254 96M120 97L121 98L120 97M255 97L256 98L255 97M119 98L120 99L119 98M256 98L257 99L256 98M257.333 99.6667L257.667 100.333L257.333 99.6667M118 100L119 101L118 100M117 101L118 102L117 101M258 101L259 102L258 101M116 102L117 103L116 102M259.333 102.667L259.667 103.333L259.333 102.667M115 104L116 105L115 104M260 104L261 105L260 104M114 105L115 106L114 105M261.333 105.667L261.667 106.333L261.333 105.667M113.333 106.667L113.667 107.333L113.333 106.667M262 107L263 108L262 107M112 108L113 109L112 108M263 109L264 110L263 109M111 110L112 111L111 110M264.333 110.667L264.667 111.333L264.333 110.667M110 112L111 113L110 112M265 112L266 113L265 112M109 114L110 115L109 114M266 114L267 115L266 114M108 116L109 117L108 116M267 116L268 117L267 116M107.333 118.667L107.667 119.333L107.333 118.667M268.333 118.667L268.667 119.333L268.333 118.667M269.333 120.667L269.667 121.333L269.333 120.667M106 121L107 122L106 121M270.333 122.667L270.667 123.333L270.333 122.667M105 124L106 125L105 124M271.333 125.667L271.667 126.333L271.333 125.667M104.333 127.667L104.667 128.333L104.333 127.667M272.333 128.667L272.667 129.333L272.333 128.667M103 130L103 133L104 133L103 130M273.333 131.667L273.667 132.333L273.333 131.667M274 134L274 137L275 137L274 134M102 135L102 138L103 138L102 135M275 138L275 141L276 141L275 138M101 141L101 146L102 146L101 141M276 144L276 149L277 149L276 144M276 160L276 166L277 166L276 160M101 162L101 166L102 166L101 162M102 168L102 171L103 171L102 168M275 168L275 171L276 171L275 168M103.333 172.667L103.667 173.333L103.333 172.667M274.333 173.667L274.667 174.333L274.333 173.667M104.333 175.667L104.667 176.333L104.333 175.667z"/>
<path style="fill:#88a4ba; stroke:none;" d="M159.667 175.333L160.333 175.667L159.667 175.333z"/>
<path style="fill:#1c4b79; stroke:none;" d="M170 251C178.948 250.286 175.581 239.33 174.562 233C172.713 221.52 168.399 210.687 163.989 200C161.579 194.159 157.798 188.457 159 182C169.032 189.453 173.142 200.285 184 185L185 185C191.466 193.564 199.217 191.057 207 186C205.981 195.945 198.324 204.817 194.604 214C192.764 218.543 191.053 223.201 190.015 228C188.812 233.555 188.227 240.329 189.148 245.98C189.48 248.018 191.619 251.8 193.977 249.199C196.847 246.032 194.971 236.217 195.808 232C198.267 219.606 204.521 209.077 210.215 198C212.41 193.73 214.671 187.527 211.397 183.148C205.622 175.426 200.026 185.92 194 183.825C190.854 182.731 189.066 179.36 186.004 178.086C180.739 175.897 175.177 184.814 172 188C170.167 184.08 167.97 179.297 163.957 177.179C156.326 173.153 151.342 179.927 152.186 187C153.412 197.279 160.289 207.268 163.656 217C167.591 228.372 167.847 239.401 170 251z"/>
<path style="fill:#88a4ba; stroke:none;" d="M163 176L164 177L163 176z"/>
<path style="fill:#cfe0e0; stroke:none;" d="M273.333 176.667L273.667 177.333L273.333 176.667z"/>
<path style="fill:#88a4ba; stroke:none;" d="M154 177L155 178L154 177z"/>
<path style="fill:#cfe0e0; stroke:none;" d="M105.333 178.667L105.667 179.333L105.333 178.667z"/>
<path style="fill:#88a4ba; stroke:none;" d="M152 179L153 180L152 179M205 179L206 180L205 179z"/>
<path style="fill:#cfe0e0; stroke:none;" d="M272.333 179.667L272.667 180.333L272.333 179.667M106.333 180.667L106.667 181.333L106.333 180.667z"/>
<path style="fill:#88a4ba; stroke:none;" d="M179 180L180 181L179 180M168 181L169 182L168 181M178 181L179 182L178 181M210 181L211 182L210 181z"/>
<path style="fill:#cfe0e0; stroke:none;" d="M107.333 182.667L107.667 183.333L107.333 182.667z"/>
<path style="fill:#88a4ba; stroke:none;" d="M151 182L151 187L152 187L151 182M211 182L212 183L211 182z"/>
<path style="fill:#cfe0e0; stroke:none;" d="M271.333 182.667L271.667 183.333L271.333 182.667z"/>
<path style="fill:#88a4ba; stroke:none;" d="M169 183L170 184L169 183z"/>
<path style="fill:#cfe0e0; stroke:none;" d="M108.333 184.667L108.667 185.333L108.333 184.667z"/>
<path style="fill:#88a4ba; stroke:none;" d="M193 184L194 185L193 184z"/>
<path style="fill:#cfe0e0; stroke:none;" d="M270.333 184.667L270.667 185.333L270.333 184.667z"/>
<path style="fill:#88a4ba; stroke:none;" d="M163 185L164 186L163 185M184 185L185 186L184 185z"/>
<path style="fill:#cfe0e0; stroke:none;" d="M109.333 186.667L109.667 187.333L109.333 186.667z"/>
<path style="fill:#88a4ba; stroke:none;" d="M173 186L174 187L173 186M185 186L186 187L185 186M205.667 186.333L206.333 186.667L205.667 186.333M213 186L213 190L214 190L213 186z"/>
<path style="fill:#cfe0e0; stroke:none;" d="M269.333 186.667L269.667 187.333L269.333 186.667z"/>
<path style="fill:#88a4ba; stroke:none;" d="M158 187L159 188L158 187M164 187L165 188L164 187M172 187L173 188L172 187M186 187L187 188L186 187M204 187L205 188L204 187z"/>
<path style="fill:#cfe0e0; stroke:none;" d="M110 188L111 189L110 188z"/>
<path style="fill:#88a4ba; stroke:none;" d="M203 188L204 189L203 188z"/>
<path style="fill:#cfe0e0; stroke:none;" d="M268.333 188.667L268.667 189.333L268.333 188.667z"/>
<path style="fill:#88a4ba; stroke:none;" d="M152 189L153 190L152 189M159 189L160 190L159 189M165 189L166 190L165 189z"/>
<path style="fill:#cfe0e0; stroke:none;" d="M111 190L112 191L111 190z"/>
<path style="fill:#88a4ba; stroke:none;" d="M191 190L192 191L191 190M200 190L201 191L200 190M206 190L207 191L206 190z"/>
<path style="fill:#cfe0e0; stroke:none;" d="M267 190L268 191L267 190M112 191L113 192L112 191z"/>
<path style="fill:#88a4ba; stroke:none;" d="M195.667 191.333L196.333 191.667L195.667 191.333M153 192L154 193L153 192M176 192L177 193L176 192z"/>
<path style="fill:#cfe0e0; stroke:none;" d="M266 192L267 193L266 192M113 193L114 194L113 193z"/>
<path style="fill:#88a4ba; stroke:none;" d="M169 193L170 194L169 193M212 193L213 194L212 193z"/>
<path style="fill:#cfe0e0; stroke:none;" d="M265 193L266 194L265 193M114.333 194.667L114.667 195.333L114.333 194.667z"/>
<path style="fill:#88a4ba; stroke:none;" d="M154 194L155 195L154 194M161 194L162 195L161 194M204 194L205 195L204 194M211 195L212 196L211 195z"/>
<path style="fill:#cfe0e0; stroke:none;" d="M264 195L265 196L264 195M115 196L116 197L115 196z"/>
<path style="fill:#88a4ba; stroke:none;" d="M162 196L163 197L162 196M203 196L204 197L203 196z"/>
<path style="fill:#cfe0e0; stroke:none;" d="M263 196L264 197L263 196M116.333 197.667L116.667 198.333L116.333 197.667z"/>
<path style="fill:#88a4ba; stroke:none;" d="M210 197L211 198L210 197z"/>
<path style="fill:#cfe0e0; stroke:none;" d="M262 197L263 198L262 197z"/>
<path style="fill:#88a4ba; stroke:none;" d="M202 198L203 199L202 198z"/>
<path style="fill:#cfe0e0; stroke:none;" d="M117 199L118 200L117 199z"/>
<path style="fill:#88a4ba; stroke:none;" d="M156 199L157 200L156 199z"/>
<path style="fill:#cfe0e0; stroke:none;" d="M261 199L262 200L261 199M118 200L119 201L118 200M260 200L261 201L260 200z"/>
<path style="fill:#88a4ba; stroke:none;" d="M157 201L158 202L157 201M164 201L165 202L164 201z"/>
<path style="fill:#cfe0e0; stroke:none;" d="M259 201L260 202L259 201M119 202L120 203L119 202z"/>
<path style="fill:#88a4ba; stroke:none;" d="M207 202L208 203L207 202z"/>
<path style="fill:#cfe0e0; stroke:none;" d="M258 202L259 203L258 202M120 203L121 204L120 203z"/>
<path style="fill:#88a4ba; stroke:none;" d="M165 203L166 204L165 203z"/>
<path style="fill:#cfe0e0; stroke:none;" d="M257 203L258 204L257 203M121 204L122 205L121 204z"/>
<path style="fill:#88a4ba; stroke:none;" d="M206 204L207 205L206 204z"/>
<path style="fill:#cfe0e0; stroke:none;" d="M256 204L257 205L256 204M255 205L256 206L255 205M122 206L123 207L122 206z"/>
<path style="fill:#88a4ba; stroke:none;" d="M159 206L160 207L159 206M166 206L167 207L166 206M205 206L206 207L205 206z"/>
<path style="fill:#cfe0e0; stroke:none;" d="M254 206L255 207L254 206M123 207L124 208L123 207M253 207L254 208L253 207z"/>
<path style="fill:#88a4ba; stroke:none;" d="M160 208L161 209L160 208M167 208L168 209L167 208M204 208L205 209L204 208z"/>
<path style="fill:#cfe0e0; stroke:none;" d="M252 208L253 209L252 208M124 209L125 210L124 209M250.667 209.333L251.333 209.667L250.667 209.333M125 210L126 211L125 210z"/>
<path style="fill:#88a4ba; stroke:none;" d="M203 210L204 211L203 210z"/>
<path style="fill:#cfe0e0; stroke:none;" d="M249 210L250 211L249 210M126 211L127 212L126 211z"/>
<path style="fill:#88a4ba; stroke:none;" d="M161 211L162 212L161 211M168 211L169 212L168 211z"/>
<path style="fill:#cfe0e0; stroke:none;" d="M248 211L249 212L248 211z"/>
<path style="fill:#88a4ba; stroke:none;" d="M202 212L203 213L202 212z"/>
<path style="fill:#cfe0e0; stroke:none;" d="M247 212L248 213L247 212M127 213L128 214L127 213z"/>
<path style="fill:#88a4ba; stroke:none;" d="M162 213L163 214L162 213z"/>
<path style="fill:#cfe0e0; stroke:none;" d="M246 213L247 214L246 213M128 214L129 215L128 214z"/>
<path style="fill:#88a4ba; stroke:none;" d="M194 214L195 215L194 214M201 214L202 215L201 214z"/>
<path style="fill:#cfe0e0; stroke:none;" d="M245 214L246 215L245 214M243.667 215.333L244.333 215.667L243.667 215.333M129 216L130 217L129 216z"/>
<path style="fill:#88a4ba; stroke:none;" d="M163 216L164 217L163 216M170 216L171 217L170 216M193 216L194 217L193 216z"/>
<path style="fill:#cfe0e0; stroke:none;" d="M242 216L243 217L242 216M130 217L131 218L130 217M241 217L242 218L241 217M240 218L241 219L240 218M131 219L132 220L131 219z"/>
<path style="fill:#88a4ba; stroke:none;" d="M164 219L165 220L164 219M171.333 219.667L171.667 220.333L171.333 219.667M192 219L193 220L192 219M199 219L200 220L199 219z"/>
<path style="fill:#cfe0e0; stroke:none;" d="M239 219L240 220L239 219M132 220L133 221L132 220M238 220L239 221L238 220z"/>
<path style="fill:#88a4ba; stroke:none;" d="M198 221L199 222L198 221z"/>
<path style="fill:#cfe0e0; stroke:none;" d="M237 221L238 222L237 221M133 222L134 223L133 222z"/>
<path style="fill:#88a4ba; stroke:none;" d="M165 222L166 223L165 222M191 222L192 223L191 222z"/>
<path style="fill:#cfe0e0; stroke:none;" d="M236 222L237 223L236 222z"/>
<path style="fill:#88a4ba; stroke:none;" d="M172 223L173 224L172 223z"/>
<path style="fill:#cfe0e0; stroke:none;" d="M235 223L236 224L235 223M134 224L135 225L134 224M234 224L235 225L234 224M135.333 225.667L135.667 226.333L135.333 225.667z"/>
<path style="fill:#88a4ba; stroke:none;" d="M190 225L191 226L190 225M197 225L198 226L197 225z"/>
<path style="fill:#cfe0e0; stroke:none;" d="M233 225L234 226L233 225z"/>
<path style="fill:#88a4ba; stroke:none;" d="M166 226L167 227L166 226z"/>
<path style="fill:#cfe0e0; stroke:none;" d="M232 226L233 227L232 226M136.333 227.667L136.667 228.333L136.333 227.667z"/>
<path style="fill:#88a4ba; stroke:none;" d="M173 227L174 228L173 227z"/>
<path style="fill:#cfe0e0; stroke:none;" d="M231 227L232 228L231 227z"/>
<path style="fill:#88a4ba; stroke:none;" d="M196 228L197 229L196 228z"/>
<path style="fill:#cfe0e0; stroke:none;" d="M230 228L231 229L230 228M137.333 229.667L137.667 230.333L137.333 229.667M229 229L230 230L229 229z"/>
<path style="fill:#88a4ba; stroke:none;" d="M167 230L168 231L167 230M189 230L190 231L189 230z"/>
<path style="fill:#cfe0e0; stroke:none;" d="M228.333 230.667L228.667 231.333L228.333 230.667M138 232L139 233L138 232z"/>
<path style="fill:#88a4ba; stroke:none;" d="M174 232L175 233L174 232z"/>
<path style="fill:#cfe0e0; stroke:none;" d="M227 232L228 233L227 232z"/>
<path style="fill:#88a4ba; stroke:none;" d="M195 233L196 234L195 233z"/>
<path style="fill:#cfe0e0; stroke:none;" d="M226 233L227 234L226 233M139.333 234.667L139.667 235.333L139.333 234.667z"/>
<path style="fill:#88a4ba; stroke:none;" d="M168.333 235.667L168.667 236.333L168.333 235.667z"/>
<path style="fill:#cfe0e0; stroke:none;" d="M225 235L226 236L225 235M224.333 236.667L224.667 237.333L224.333 236.667M140 237L141 238L140 237z"/>
<path style="fill:#88a4ba; stroke:none;" d="M188 237L188 244L189 244L188 237z"/>
<path style="fill:#cfe0e0; stroke:none;" d="M223.333 238.667L223.667 239.333L223.333 238.667M141.333 239.667L141.667 240.333L141.333 239.667z"/>
<path style="fill:#88a4ba; stroke:none;" d="M175.333 239.667L175.667 240.333L175.333 239.667z"/>
<path style="fill:#cfe0e0; stroke:none;" d="M222 241L223 242L222 241M142 242L142 245L143 245L142 242M221.333 243.667L221.667 244.333L221.333 243.667M143 246L143 249L144 249L143 246M220 246L220 250L161 251L144 251C132.591 268.544 139.6 285.598 140 305L141 305C143.437 296.979 154.611 301.947 161 301.995C163.765 302.016 168.276 300.929 170.623 302.769C176.609 307.459 163.211 309.011 161 308.995C158.288 308.976 155.68 308.654 153 308.271C148.944 307.691 145.008 306.827 141 306C142.195 317.591 151.927 319.791 159.682 326.071C165.195 330.535 160.9 337.717 170.001 340.362C178.5 342.831 194.139 341.363 200.468 334.66C204.514 330.374 205.865 324.385 210.043 320.004C215.811 313.955 223.757 309.49 226.211 301C228.608 292.707 226.407 283.396 226.039 275C225.549 263.798 228.32 254.463 220 246z"/>
<path style="fill:#88a4ba; stroke:none;" d="M169.333 248.667L169.667 249.333L169.333 248.667M175 249L176 250L175 249M189 249L190 250L189 249M190 250L191 251L190 250M193 250L194 251L193 250M172 251L173 252L172 251M219 282L220 283L219 282z"/>
<path style="fill:#1c4b79; stroke:none;" d="M194 292C197.991 292 202.03 292.184 206 291.715C208.656 291.4 211.36 291.124 214 290.703C215.995 290.384 227.91 286.294 221.663 283.233C219.185 282.019 215.488 284.064 213 284.532C206.312 285.791 194.683 283.237 194 292z"/>
<path style="fill:#88a4ba; stroke:none;" d="M222 282L223 283L222 282M216.667 283.333L217.333 283.667L216.667 283.333M223 283L224 284L223 283M142 284L141 287L142 287L142 284z"/>
<path style="fill:#1c4b79; stroke:none;" d="M143.478 285.113C137.472 288.861 155.491 294.169 159.214 290.976C164.52 286.425 146.477 283.24 143.478 285.113z"/>
<path style="fill:#88a4ba; stroke:none;" d="M146 284L146 285L150 285L146 284M211 284L211 285L214 285L211 284M154 285L154 286L158 286L154 285M197 285L197 286L205 286L197 285M224 285L225 286L224 285M194 286L195 287L194 286M160 287L161 288L160 287M193 287L193 291L194 291L193 287M223 287L224 288L223 287M141 288L142 289L141 288M221 288L222 289L221 288M219 289L220 290L219 289M143.667 290.333L144.333 290.667L143.667 290.333M160 290L161 291L160 290M215.667 290.333L216.333 290.667L215.667 290.333M149 291L149 292L153 292L149 291M207 291L207 292L212 292L207 291M195 292L195 293L199 293L195 292M142 300L141 302L142 300z"/>
<path style="fill:#1c4b79; stroke:none;" d="M143.337 301.113C138.978 303.661 144.721 306.437 147.005 306.981C152.889 308.382 165.301 310.813 170.638 306.981C172.754 305.461 172.1 303.044 169.767 302.318C165.735 301.063 146.676 299.161 143.337 301.113z"/>
<path style="fill:#88a4ba; stroke:none;" d="M146.667 300.333L147.333 300.667L146.667 300.333M213 300L213 301L215 307L216 307C216.81 303.382 216.272 301.806 213 300M151 301L151 302L155 302L151 301M168 301L168 302L171 302L168 301M208.667 301.333L209.333 301.667L208.667 301.333z"/>
<path style="fill:#1c4b79; stroke:none;" d="M209.995 301.459C206.387 301.891 201.051 303.051 198.377 305.694C195.894 308.148 198.046 310.54 201.02 310.323C204.181 310.093 212.044 308.254 214.377 306.066C217.861 302.8 212.554 301.153 209.995 301.459z"/>
<path style="fill:#88a4ba; stroke:none;" d="M204 302L205 303L204 302M172 303L173 304L172 303M202 303L203 304L202 303M199 304L200 305L199 304M141 305L142 306L141 305M197 305L198 306L197 305M143.667 306.333L144.333 306.667L143.667 306.333M172 306L173 307L172 306M196 306L197 307L196 306M147 307L147 308L150 308L147 307M171 307L172 308L171 307M211.667 307.333L212.333 307.667L211.667 307.333M154 308L154 309L160 309L154 308M164 308L164 309L169 309L164 308M206.667 308.333L207.333 308.667L206.667 308.333M196 309L197 310L196 309M204 309L205 310L204 309M197 310L198 311L197 310M201 310L202 311L201 310M198.667 311.333L199.333 311.667L198.667 311.333z"/>
</svg>
