<?xml version="1.0" standalone="yes"?>
<svg xmlns="http://www.w3.org/2000/svg" width="252" height="336">
<path style="fill:#010202; stroke:none;" d="M0 0L0 336L252 336L252 0L0 0z"/>
<path style="fill:#069b06; stroke:none;" d="M131 17L131 18L143 18L131 17M123.667 18.3333L124.333 18.6667L123.667 18.3333z"/>
<path style="fill:#0d3959; stroke:none;" d="M105 238L105 239C90.1489 240.654 93 258.125 93 269L143 269C148.417 269.009 157.704 269.404 157.704 277C157.704 284.126 149.247 284.974 144 284.999C127.334 285.081 110.666 285 94 285C97.2775 291.833 102.503 303.052 108.21 308.1C123.777 321.872 153.433 322.088 167.471 305.826C178.739 292.772 181 277.501 181 261L130 261C124.464 261 115.481 261.466 114.427 253.996C113.414 246.826 121.752 245.069 127 245.004C143.994 244.794 161.004 245 178 245L169 239C187.675 229.841 173.423 215.656 182.603 203.21C187.152 197.043 196.837 193.74 202.576 188.485C218.161 174.215 228.054 155.509 232.576 135C248.067 64.7382 179.88 3.84229 112 20.8951C55.0296 35.2072 23.2254 101.533 47.3117 155C53.5994 168.958 62.308 180.787 74.0008 190.704C79.0916 195.021 86.0894 197.784 90.6821 202.529C100.429 212.598 84.1635 234.223 105 238z"/>
<path style="fill:#069b06; stroke:none;" d="M149 18L150 19L149 18M116 19L116 20L119 20L116 19M155 19L155 20L158 20L155 19M113 20L114 21L113 20M159.667 20.3333L160.333 20.6667L159.667 20.3333M108.667 21.3333L109.333 21.6667L108.667 21.3333M163.667 21.3333L164.333 21.6667L163.667 21.3333M106 22L107 23L106 22M167 22L168 23L167 22M103 23L104 24L103 23M169.667 23.3333L170.333 23.6667L169.667 23.3333M101 24L102 25L101 24M172 24L173 25L172 24M98 25L99 26L98 25M175 25L176 26L175 25M96 26L97 27L96 26M177 26L178 27L177 26M94 27L95 28L94 27M179 27L180 28L179 27M92 28L93 29L92 28M181 28L182 29L181 28M90 29L91 30L90 29M183 29L184 30L183 29M88 30L89 31L88 30M185 30L186 31L185 30M86 31L87 32L86 31M186 31L187 32L186 31M85 32L86 33L85 32M188 32L189 33L188 32M83 33L84 34L83 33M191 34L192 35L191 34M80 35L81 36L80 35M79 36L80 37L79 36M194 36L195 37L194 36M195 37L196 38L195 37M76 38L77 39L76 38M197 38L198 39L197 38M75 39L76 40L75 39M198 39L199 40L198 39M74 40L75 41L74 40M199 40L200 41L199 40M200 41L201 42L200 41M201 42L202 43L201 42M70 43L71 44L70 43M69 44L70 45L69 44M204 44L205 45L204 44M68 45L69 46L68 45M205 45L206 46L205 45M67 46L68 47L67 46M206 46L207 47L206 46M66 47L67 48L66 47M207 47L208 48L207 47M65 48L66 49L65 48M208 48L209 49L208 48M64 49L65 50L64 49M63 50L64 51L63 50M211 52L212 53L211 52M212 53L213 54L212 53M60 54L61 55L60 54M213 54L214 55L213 54M59 55L60 56L59 55M214 55L215 56L214 55z"/>
<path style="fill:#709393; stroke:none;" d="M177 56L177 57L183 57L177 56M173 57L174 58L173 57z"/>
<path style="fill:#f7f9fa; stroke:none;" d="M174 57.5293C142.931 64.6993 155.765 112.421 187 104.485C216.907 96.8875 203.959 50.6155 174 57.5293z"/>
<path style="fill:#709393; stroke:none;" d="M186 57L187 58L186 57z"/>
<path style="fill:#069b06; stroke:none;" d="M215 57L216 58L215 57M57 58L58 59L57 58z"/>
<path style="fill:#709393; stroke:none;" d="M170 58L171 59L170 58M189 58L190 59L189 58z"/>
<path style="fill:#069b06; stroke:none;" d="M216 58L217 59L216 58M56 59L57 60L56 59z"/>
<path style="fill:#709393; stroke:none;" d="M168 59L169 60L168 59M191 59L192 60L191 59M166 60L167 61L166 60M193 60L194 61L193 60z"/>
<path style="fill:#069b06; stroke:none;" d="M217 60L218 61L217 60M55 61L56 62L55 61z"/>
<path style="fill:#709393; stroke:none;" d="M165 61L166 62L165 61z"/>
<path style="fill:#069b06; stroke:none;" d="M218 61L219 62L218 61z"/>
<path style="fill:#709393; stroke:none;" d="M197 63L198 64L197 63z"/>
<path style="fill:#069b06; stroke:none;" d="M219 63L220 64L219 63M53 64L54 65L53 64M220 65L221 66L220 65M52 66L53 67L52 66z"/>
<path style="fill:#709393; stroke:none;" d="M160 66L161 67L160 66z"/>
<path style="fill:#069b06; stroke:none;" d="M221 66L222 67L221 66M51 67L52 68L51 67z"/>
<path style="fill:#709393; stroke:none;" d="M159 67L160 68L159 67M200 67L201 68L200 67z"/>
<path style="fill:#069b06; stroke:none;" d="M222 68L223 69L222 68M50 69L51 70L50 69z"/>
<path style="fill:#709393; stroke:none;" d="M158 69L159 70L158 69M201 69L202 70L201 69z"/>
<path style="fill:#069b06; stroke:none;" d="M223 70L224 71L223 70M49 71L50 72L49 71z"/>
<path style="fill:#709393; stroke:none;" d="M157 71L158 72L157 71M202 71L203 72L202 71z"/>
<path style="fill:#069b06; stroke:none;" d="M224 72L225 73L224 72M48 73L49 74L48 73z"/>
<path style="fill:#709393; stroke:none;" d="M203.333 73.6667L203.667 74.3333L203.333 73.6667M156 74L157 75L156 74z"/>
<path style="fill:#069b06; stroke:none;" d="M225 74L226 75L225 74M47 75L48 76L47 75M226 76L227 77L226 76z"/>
<path style="fill:#709393; stroke:none;" d="M204 77L204 86L205 86L204 77M155 78L155 85L156 85L155 78z"/>
<path style="fill:#069b06; stroke:none;" d="M227 78L228 79L227 78M45 80L46 81L45 80M228 81L229 82L228 81M44 83L45 84L44 83M229.333 83.6667L229.667 84.3333L229.333 83.6667M43.3333 85.6667L43.6667 86.3333L43.3333 85.6667M230.333 86.6667L230.667 87.3333L230.333 86.6667z"/>
<path style="fill:#709393; stroke:none;" d="M156.333 87.6667L156.667 88.3333L156.333 87.6667M203 88L204 89L203 88z"/>
<path style="fill:#069b06; stroke:none;" d="M42.3333 89.6667L42.6667 90.3333L42.3333 89.6667M231.333 90.6667L231.667 91.3333L231.333 90.6667z"/>
<path style="fill:#709393; stroke:none;" d="M157 91L158 92L157 91M202 91L203 92L202 91z"/>
<path style="fill:#069b06; stroke:none;" d="M41.3333 93.6667L41.6667 94.3333L41.3333 93.6667z"/>
<path style="fill:#709393; stroke:none;" d="M158 93L159 94L158 93M201 93L202 94L201 93z"/>
<path style="fill:#069b06; stroke:none;" d="M232.333 94.6667L232.667 95.3333L232.333 94.6667z"/>
<path style="fill:#709393; stroke:none;" d="M160 96L161 97L160 96M199 96L200 97L199 96z"/>
<path style="fill:#069b06; stroke:none;" d="M40 97L40 100L41 100L40 97z"/>
<path style="fill:#709393; stroke:none;" d="M161 97L162 98L161 97M198 97L199 98L198 97M162 98L163 99L162 98M197 98L198 99L197 98z"/>
<path style="fill:#069b06; stroke:none;" d="M233 98L233 102L234 102L233 98z"/>
<path style="fill:#709393; stroke:none;" d="M163 99L164 100L163 99M196 99L197 100L196 99M164 100L165 101L164 100M195 100L196 101L195 100M167 102L168 103L167 102M192 102L193 103L192 102z"/>
<path style="fill:#069b06; stroke:none;" d="M39 103L39 115L40 115L39 103z"/>
<path style="fill:#709393; stroke:none;" d="M169 103L170 104L169 103M190 103L191 104L190 103M171.667 104.333L172.333 104.667L171.667 104.333M187.667 104.333L188.333 104.667L187.667 104.333M174 105L174 106L179 106L174 105M181 105L181 106L186 106L181 105z"/>
<path style="fill:#069b06; stroke:none;" d="M234 106L234 125L235 125L234 106M39 117L39 128L40 128L39 117M233 130L233 133L234 133L233 130M40 131L40 134L41 134L40 131M232.333 135.667L232.667 136.333L232.333 135.667M41 137L42 138L41 137M231.333 139.667L231.667 140.333L231.333 139.667M42 141L43 142L42 141M230.333 143.667L230.667 144.333L230.333 143.667M43.3333 144.667L43.6667 145.333L43.3333 144.667M229.333 146.667L229.667 147.333L229.333 146.667M44.3333 147.667L44.6667 148.333L44.3333 147.667M228 149L229 150L228 149M45 150L46 151L45 150M227 152L228 153L227 152M46 153L47 154L46 153M226 154L227 155L226 154M47 155L48 156L47 155M225 156L226 157L225 156M48 157L49 158L48 157M224 158L225 159L224 158M49 159L50 160L49 159M50 161L51 162L50 161M223 161L224 162L223 161M51 163L52 164L51 163M221 164L222 165L221 164M52 165L53 166L52 165M220 166L221 167L220 166M54 168L55 169L54 168M219 168L220 169L219 168M218 169L219 170L218 169M55 170L56 171L55 170M56 171L57 172L56 171M217 171L218 172L217 171M216 172L217 173L216 172M58 174L59 175L58 174M59 175L60 176L59 175M214 175L215 176L214 175M213 176L214 177L213 176M62 179L63 180L62 179M63 180L64 181L63 180M210 180L211 181L210 180M64 181L65 182L64 181M209 181L210 182L209 181M65 182L66 183L65 182M208 182L209 183L208 182M66 183L67 184L66 183M207 183L208 184L207 183M206 184L207 185L206 184M68 185L69 186L68 185M205 185L206 186L205 185M69 186L70 187L69 186M204 186L205 187L204 186M70 187L71 188L70 187M203 187L204 188L203 187M71 188L72 189L71 188M72 189L73 190L72 189M73 190L74 191L73 190M198 191L199 192L198 191M76 192L77 193L76 192M197 192L198 193L197 192M77 193L78 194L77 193M194 194L195 195L194 194M80 195L81 196L80 195M193 195L194 196L193 195M81 196L82 197L81 196M83 197L84 198L83 197M190 197L191 198L190 197M188 198L189 199L188 198M86 199L87 200L86 199M187 199L188 200L187 199M88 200L89 201L88 200M185 200L186 201L185 200M183 201L184 202L183 201M91 202L92 203L91 202M182 202L183 203L182 202M92 203L93 204L92 203M180.333 226.667L180.667 227.333L180.333 226.667M93.3333 228.667L93.6667 229.333L93.3333 228.667M179 230L180 231L179 230M95 232L96 233L95 232M178 232L179 233L178 232M177 233L178 234L177 233M175 235L176 236L175 235M99 236L100 237L99 236M174 236L175 237L174 236M101 237L102 238L101 237M172 237L173 238L172 237M102 238L102 239L105 239L102 238M169.667 238.333L170.333 238.667L169.667 238.333M100 239L101 240L100 239M172 239L173 240L172 239M174 240L175 241L174 240M97 241L98 242L97 241M96 242L97 243L96 242M177 243L178 244L177 243M178 244L179 245L178 244M94 245L95 246L94 245z"/>
<path style="fill:#709393; stroke:none;" d="M120 245L120 246L182 246L162 245L120 245z"/>
<path style="fill:#069b06; stroke:none;" d="M182 245L183 246L182 245z"/>
<path style="fill:#709393; stroke:none;" d="M117 246L115 249L117 246z"/>
<path style="fill:#f7f9fa; stroke:none;" d="M118.109 247.028C111.509 250.744 114.794 258.908 121.015 260.467C134.837 263.929 152.759 261 167 261C172.096 261 179.435 262.255 183.852 259.142C189.087 255.452 187.084 247.376 180.985 246.228C166.965 243.591 150.275 246 136 246C130.908 246 122.675 244.456 118.109 247.028z"/>
<path style="fill:#709393; stroke:none;" d="M183 246L184 247L183 246z"/>
<path style="fill:#069b06; stroke:none;" d="M184 246L185 247L184 246M93.3333 247.667L93.6667 248.333L93.3333 247.667M185 247L186 248L185 247z"/>
<path style="fill:#709393; stroke:none;" d="M186 249L187 250L186 249M114 250L115 251L114 250M187 251L187 255L188 255L187 251M114.333 255.667L114.667 256.333L114.333 255.667z"/>
<path style="fill:#069b06; stroke:none;" d="M187 255L188 256L187 255z"/>
<path style="fill:#709393; stroke:none;" d="M115 257L116 258L115 257z"/>
<path style="fill:#069b06; stroke:none;" d="M186 257L187 258L186 257z"/>
<path style="fill:#709393; stroke:none;" d="M185 258L186 259L185 258M117 259L118 260L117 259z"/>
<path style="fill:#069b06; stroke:none;" d="M184 259L185 260L184 259z"/>
<path style="fill:#709393; stroke:none;" d="M119.667 260.333L120.333 260.667L119.667 260.333M181.667 260.333L182.333 260.667L181.667 260.333z"/>
<path style="fill:#069b06; stroke:none;" d="M92 264L92 269L93 269L92 264M181.333 266.667L181.667 267.333L181.333 266.667M89.6667 269.333L90.3333 269.667L89.6667 269.333z"/>
<path style="fill:#709393; stroke:none;" d="M91 269L91 270L152 270L132 269L91 269M88 270L89 271L88 270z"/>
<path style="fill:#f7f9fa; stroke:none;" d="M89.1088 270.742C83.384 273.204 84.2396 281.873 90.044 283.566C103.812 287.584 123.641 284 138 284C142.735 284 150.483 285.446 154.656 282.821C160.678 279.033 157.004 271.089 150.999 270.148C137.345 268.01 121.83 270 108 270C102.446 270 94.2898 268.514 89.1088 270.742z"/>
<path style="fill:#709393; stroke:none;" d="M154 270L155 271L154 270z"/>
<path style="fill:#069b06; stroke:none;" d="M86 271L87 272L86 271z"/>
<path style="fill:#709393; stroke:none;" d="M155 271L156 272L155 271M156 272L157 273L156 272M85 273L86 274L85 273M157 273L158 274L157 273z"/>
<path style="fill:#069b06; stroke:none;" d="M84 275L85 276L84 275z"/>
<path style="fill:#709393; stroke:none;" d="M84.3333 276.667L84.6667 277.333L84.3333 276.667z"/>
<path style="fill:#069b06; stroke:none;" d="M83 277L84 278L83 277M84 278L85 279L84 278z"/>
<path style="fill:#709393; stroke:none;" d="M85 280L86 281L85 280M157 280L158 281L157 280M156 281L157 282L156 281z"/>
<path style="fill:#069b06; stroke:none;" d="M180 281L180 284L181 284L180 281M86 282L87 283L86 282z"/>
<path style="fill:#709393; stroke:none;" d="M88 283L89 284L88 283M154 283L155 284L154 283z"/>
<path style="fill:#069b06; stroke:none;" d="M90 284L91 285L90 284z"/>
<path style="fill:#709393; stroke:none;" d="M91 284L91 285L152 285L132 284L91 284z"/>
<path style="fill:#069b06; stroke:none;" d="M179 285L180 286L179 285M95.3333 287.667L95.6667 288.333L95.3333 287.667M178 287L179 288L178 287M177 288L178 289L177 288M96 289L97 290L96 289M97 290L98 291L97 290M175 290L176 291L175 290M99.3333 291.667L99.6667 292.333L99.3333 291.667M174 291L175 292L174 291M173 292L173 295L174 295L173 292M100.333 294.667L100.667 295.333L100.333 294.667M172 297L173 298L172 297M101 298L102 299L101 298M171.333 299.667L171.667 300.333L171.333 299.667M102 300L103 301L102 300M170 301L171 302L170 301M103 302L104 303L103 302M104 303L105 304L104 303M169 303L170 304L169 303M168 304L169 305L168 304M107 307L108 308L107 307M164 308L165 309L164 308M163 309L164 310L163 309M111 310L112 311L111 310M162 310L163 311L162 310M160 311L161 312L160 311M114 312L115 313L114 312M159 312L160 313L159 312M116 313L117 314L116 313M157 313L158 314L157 313M118 314L119 315L118 314M155 314L156 315L155 314M120.667 315.333L121.333 315.667L120.667 315.333M152 315L153 316L152 315M123.667 316.333L124.333 316.667L123.667 316.333M149.667 316.333L150.333 316.667L149.667 316.333M127.667 317.333L128.333 317.667L127.667 317.333M145.667 317.333L146.333 317.667L145.667 317.333M134 318L134 319L139 319L134 318z"/>
</svg>
